<svg xmlns="http://www.w3.org/2000/svg" viewBox="0 0 31 22">
<g>
	<path fill="#2C292E" d="M30.9,10.5c-1.1-2.6-3.7-4.9-3.7-4.9c-5.6-5.4-11.9-7-17.7-4.1C3.8,4.4,0.3,9.5,0,10.7
		c-0.3,1.2,2.4,4.2,3.7,5.6c1.3,1.4,8.3,7.9,16.4,4.8c8.1-3.1,10.6-9.1,10.8-9.6C31.1,11.2,30.9,10.5,30.9,10.5z M15.5,19
		c-4.5,0-8.2-3.6-8.2-8c0-4.4,3.7-8,8.2-8c4.5,0,8.2,3.6,8.2,8C23.7,15.4,20,19,15.5,19z"/>
	<path fill="#2C292E" d="M15.5,11l1.1-4.3c-0.3-0.1-0.7-0.1-1.1-0.1C13,6.6,11,8.5,11,11c0,2.5,2,4.4,4.5,4.4c2.5,0,4.5-2,4.5-4.4
		c0-0.4,0-0.7-0.1-1.1L15.5,11z"/>
</g>
</svg>
